<svg width="111" height="37" viewBox="0 0 111 37" fill="none" xmlns="http://www.w3.org/2000/svg">
<path d="M5.392 13.192C4.64533 13.192 3.94133 13.0587 3.28 12.792C2.62933 12.5147 2.064 12.1253 1.584 11.624C1.11467 11.1227 0.762667 10.5307 0.528 9.848L2.56 8.936C2.85867 9.58667 3.26933 10.0987 3.792 10.472C4.32533 10.8453 4.912 11.032 5.552 11.032C5.89333 11.032 6.18667 10.9787 6.432 10.872C6.67733 10.7653 6.86933 10.6213 7.008 10.44C7.14667 10.248 7.216 10.024 7.216 9.768C7.216 9.49067 7.13067 9.256 6.96 9.064C6.78933 8.86133 6.52267 8.70133 6.16 8.584L3.824 7.816C2.87467 7.50667 2.16 7.06933 1.68 6.504C1.2 5.928 0.96 5.24 0.96 4.44C0.96 3.736 1.13067 3.11733 1.472 2.584C1.824 2.05067 2.30933 1.63467 2.928 1.336C3.55733 1.03733 4.27733 0.888 5.088 0.888C5.80267 0.888 6.464 1.01067 7.072 1.256C7.68 1.50133 8.20267 1.848 8.64 2.296C9.088 2.744 9.424 3.28267 9.648 3.912L7.632 4.824C7.408 4.26933 7.072 3.83733 6.624 3.528C6.176 3.208 5.664 3.048 5.088 3.048C4.75733 3.048 4.464 3.10133 4.208 3.208C3.952 3.31467 3.75467 3.46933 3.616 3.672C3.47733 3.864 3.408 4.088 3.408 4.344C3.408 4.62133 3.49867 4.86667 3.68 5.08C3.86133 5.28267 4.13333 5.44267 4.496 5.56L6.784 6.296C7.744 6.60533 8.45867 7.03733 8.928 7.592C9.408 8.14667 9.648 8.824 9.648 9.624C9.648 10.3173 9.46667 10.936 9.104 11.48C8.74133 12.0133 8.24 12.4347 7.6 12.744C6.97067 13.0427 6.23467 13.192 5.392 13.192ZM14.9354 13.192C14.0714 13.192 13.282 12.9947 12.5674 12.6C11.8634 12.2053 11.298 11.6667 10.8714 10.984C10.4554 10.2907 10.2474 9.50667 10.2474 8.632C10.2474 7.74667 10.4554 6.96267 10.8714 6.28C11.298 5.59733 11.8634 5.05867 12.5674 4.664C13.282 4.26933 14.0714 4.072 14.9354 4.072C15.7994 4.072 16.5834 4.26933 17.2874 4.664C17.9914 5.05867 18.5514 5.59733 18.9674 6.28C19.394 6.96267 19.6074 7.74667 19.6074 8.632C19.6074 9.50667 19.394 10.2907 18.9674 10.984C18.5514 11.6667 17.9914 12.2053 17.2874 12.6C16.5834 12.9947 15.7994 13.192 14.9354 13.192ZM14.9354 11.032C15.3727 11.032 15.7514 10.9307 16.0714 10.728C16.402 10.5253 16.658 10.2427 16.8394 9.88C17.0314 9.51733 17.1274 9.10133 17.1274 8.632C17.1274 8.16267 17.0314 7.752 16.8394 7.4C16.658 7.03733 16.402 6.75467 16.0714 6.552C15.7514 6.33867 15.3727 6.232 14.9354 6.232C14.498 6.232 14.114 6.33867 13.7834 6.552C13.4527 6.75467 13.1914 7.03733 12.9994 7.4C12.818 7.752 12.7274 8.16267 12.7274 8.632C12.7274 9.10133 12.818 9.51733 12.9994 9.88C13.1914 10.2427 13.4527 10.5253 13.7834 10.728C14.114 10.9307 14.498 11.032 14.9354 11.032ZM21.281 13V6.344H19.809V4.264H21.281V4.136C21.281 3.44267 21.4143 2.856 21.681 2.376C21.9583 1.896 22.353 1.528 22.865 1.272C23.377 1.016 23.9957 0.888 24.721 0.888C24.8597 0.888 25.009 0.898666 25.169 0.919999C25.329 0.930666 25.4623 0.946666 25.569 0.967999V3.016C25.4623 2.99467 25.3663 2.984 25.281 2.984C25.2063 2.97333 25.1263 2.968 25.041 2.968C24.593 2.968 24.2517 3.06933 24.017 3.272C23.793 3.464 23.681 3.752 23.681 4.136V4.264H25.553V6.344H23.681V13H21.281ZM27.5075 16.552C27.2515 16.552 27.0008 16.5307 26.7555 16.488C26.5208 16.4453 26.3128 16.376 26.1315 16.28V14.312C26.2808 14.3547 26.4568 14.392 26.6595 14.424C26.8622 14.456 27.0488 14.472 27.2195 14.472C27.6888 14.472 28.0248 14.36 28.2275 14.136C28.4302 13.912 28.5955 13.656 28.7235 13.368L29.3155 12.008L29.2835 14.008L25.4435 4.264H28.0195L30.5635 11.192H29.6035L32.1475 4.264H34.7235L30.9795 13.816C30.7448 14.424 30.4568 14.9307 30.1155 15.336C29.7742 15.7413 29.3848 16.0453 28.9475 16.248C28.5208 16.4507 28.0408 16.552 27.5075 16.552ZM37.524 13.192C36.8947 13.192 36.3507 13.0907 35.892 12.888C35.4333 12.6853 35.0813 12.3973 34.836 12.024C34.5907 11.64 34.468 11.1867 34.468 10.664C34.468 10.1733 34.58 9.74133 34.804 9.368C35.028 8.984 35.3693 8.664 35.828 8.408C36.2973 8.152 36.8787 7.97067 37.572 7.864L40.244 7.432V9.192L38.004 9.592C37.6627 9.656 37.4013 9.768 37.22 9.928C37.0387 10.0773 36.948 10.296 36.948 10.584C36.948 10.8507 37.0493 11.0587 37.252 11.208C37.4547 11.3573 37.7053 11.432 38.004 11.432C38.3987 11.432 38.7453 11.3467 39.044 11.176C39.3427 11.0053 39.572 10.776 39.732 10.488C39.9027 10.1893 39.988 9.864 39.988 9.512V7.24C39.988 6.90933 39.8547 6.632 39.588 6.408C39.332 6.184 38.98 6.072 38.532 6.072C38.1053 6.072 37.7267 6.18933 37.396 6.424C37.076 6.65867 36.8413 6.968 36.692 7.352L34.772 6.44C34.9427 5.94933 35.2147 5.528 35.588 5.176C35.9613 4.824 36.4093 4.552 36.932 4.36C37.4547 4.168 38.0253 4.072 38.644 4.072C39.38 4.072 40.0307 4.20533 40.596 4.472C41.1613 4.73867 41.5987 5.112 41.908 5.592C42.228 6.06133 42.388 6.61067 42.388 7.24V13H40.148V11.592L40.692 11.496C40.436 11.88 40.1533 12.2 39.844 12.456C39.5347 12.7013 39.188 12.8827 38.804 13C38.42 13.128 37.9933 13.192 37.524 13.192ZM43.5081 13V4.264H45.7481V5.992L45.6201 5.608C45.8228 5.08533 46.1481 4.70133 46.5961 4.456C47.0548 4.2 47.5881 4.072 48.1961 4.072C48.8575 4.072 49.4335 4.21067 49.9241 4.488C50.4255 4.76533 50.8148 5.15467 51.0921 5.656C51.3695 6.14667 51.5081 6.72267 51.5081 7.384V13H49.1081V7.896C49.1081 7.55467 49.0388 7.26133 48.9001 7.016C48.7721 6.77067 48.5855 6.57867 48.3401 6.44C48.1055 6.30133 47.8281 6.232 47.5081 6.232C47.1988 6.232 46.9215 6.30133 46.6761 6.44C46.4308 6.57867 46.2388 6.77067 46.1001 7.016C45.9721 7.26133 45.9081 7.55467 45.9081 7.896V13H43.5081ZM54.8573 13V1.08H57.3373V6.232H61.9773V1.08H64.4573V13H61.9773V8.392H57.3373V13H54.8573ZM65.76 13V4.264H68.16V13H65.76ZM65.76 3.48V1.08H68.16V3.48H65.76ZM73.3882 13.192C72.5349 13.192 71.7722 12.9893 71.1002 12.584C70.4282 12.1787 69.8949 11.6293 69.5002 10.936C69.1162 10.2427 68.9242 9.47467 68.9242 8.632C68.9242 7.77867 69.1216 7.01067 69.5162 6.328C69.9109 5.63467 70.4442 5.08533 71.1162 4.68C71.7882 4.27467 72.5402 4.072 73.3722 4.072C74.0122 4.072 74.5776 4.19467 75.0682 4.44C75.5696 4.67467 75.9642 5.01067 76.2522 5.448L75.8842 5.928V0.888H78.2842V13H76.0442V11.4L76.2682 11.896C75.9696 12.3227 75.5642 12.648 75.0522 12.872C74.5402 13.0853 73.9856 13.192 73.3882 13.192ZM73.6762 11.032C74.1136 11.032 74.4976 10.9307 74.8282 10.728C75.1589 10.5253 75.4149 10.2427 75.5962 9.88C75.7882 9.51733 75.8842 9.10133 75.8842 8.632C75.8842 8.16267 75.7882 7.74667 75.5962 7.384C75.4149 7.02133 75.1589 6.73867 74.8282 6.536C74.4976 6.33333 74.1136 6.232 73.6762 6.232C73.2389 6.232 72.8442 6.33867 72.4922 6.552C72.1509 6.75467 71.8842 7.03733 71.6922 7.4C71.5002 7.752 71.4042 8.16267 71.4042 8.632C71.4042 9.10133 71.5002 9.51733 71.6922 9.88C71.8842 10.2427 72.1509 10.5253 72.4922 10.728C72.8442 10.9307 73.2389 11.032 73.6762 11.032ZM82.1059 13.192C81.4765 13.192 80.9325 13.0907 80.4739 12.888C80.0152 12.6853 79.6632 12.3973 79.4179 12.024C79.1725 11.64 79.0499 11.1867 79.0499 10.664C79.0499 10.1733 79.1619 9.74133 79.3859 9.368C79.6099 8.984 79.9512 8.664 80.4099 8.408C80.8792 8.152 81.4605 7.97067 82.1539 7.864L84.8259 7.432V9.192L82.5859 9.592C82.2445 9.656 81.9832 9.768 81.8019 9.928C81.6205 10.0773 81.5299 10.296 81.5299 10.584C81.5299 10.8507 81.6312 11.0587 81.8339 11.208C82.0365 11.3573 82.2872 11.432 82.5859 11.432C82.9805 11.432 83.3272 11.3467 83.6259 11.176C83.9245 11.0053 84.1539 10.776 84.3139 10.488C84.4845 10.1893 84.5699 9.864 84.5699 9.512V7.24C84.5699 6.90933 84.4365 6.632 84.1699 6.408C83.9139 6.184 83.5619 6.072 83.1139 6.072C82.6872 6.072 82.3085 6.18933 81.9779 6.424C81.6579 6.65867 81.4232 6.968 81.2739 7.352L79.3539 6.44C79.5245 5.94933 79.7965 5.528 80.1699 5.176C80.5432 4.824 80.9912 4.552 81.5139 4.36C82.0365 4.168 82.6072 4.072 83.2259 4.072C83.9619 4.072 84.6125 4.20533 85.1779 4.472C85.7432 4.73867 86.1805 5.112 86.4899 5.592C86.8099 6.06133 86.9699 6.61067 86.9699 7.24V13H84.7299V11.592L85.2739 11.496C85.0179 11.88 84.7352 12.2 84.4259 12.456C84.1165 12.7013 83.7699 12.8827 83.3859 13C83.0019 13.128 82.5752 13.192 82.1059 13.192ZM89.45 16.552C89.194 16.552 88.9433 16.5307 88.698 16.488C88.4633 16.4453 88.2553 16.376 88.074 16.28V14.312C88.2233 14.3547 88.3993 14.392 88.602 14.424C88.8047 14.456 88.9913 14.472 89.162 14.472C89.6313 14.472 89.9673 14.36 90.17 14.136C90.3727 13.912 90.538 13.656 90.666 13.368L91.258 12.008L91.226 14.008L87.386 4.264H89.962L92.506 11.192H91.546L94.09 4.264H96.666L92.922 13.816C92.6873 14.424 92.3993 14.9307 92.058 15.336C91.7167 15.7413 91.3273 16.0453 90.89 16.248C90.4633 16.4507 89.9833 16.552 89.45 16.552ZM99.4665 13.192C98.8372 13.192 98.2932 13.0907 97.8345 12.888C97.3758 12.6853 97.0238 12.3973 96.7785 12.024C96.5332 11.64 96.4105 11.1867 96.4105 10.664C96.4105 10.1733 96.5225 9.74133 96.7465 9.368C96.9705 8.984 97.3118 8.664 97.7705 8.408C98.2398 8.152 98.8212 7.97067 99.5145 7.864L102.187 7.432V9.192L99.9465 9.592C99.6052 9.656 99.3438 9.768 99.1625 9.928C98.9812 10.0773 98.8905 10.296 98.8905 10.584C98.8905 10.8507 98.9918 11.0587 99.1945 11.208C99.3972 11.3573 99.6478 11.432 99.9465 11.432C100.341 11.432 100.688 11.3467 100.986 11.176C101.285 11.0053 101.514 10.776 101.674 10.488C101.845 10.1893 101.931 9.864 101.931 9.512V7.24C101.931 6.90933 101.797 6.632 101.53 6.408C101.275 6.184 100.922 6.072 100.474 6.072C100.048 6.072 99.6692 6.18933 99.3385 6.424C99.0185 6.65867 98.7838 6.968 98.6345 7.352L96.7145 6.44C96.8852 5.94933 97.1572 5.528 97.5305 5.176C97.9038 4.824 98.3518 4.552 98.8745 4.36C99.3972 4.168 99.9678 4.072 100.586 4.072C101.322 4.072 101.973 4.20533 102.538 4.472C103.104 4.73867 103.541 5.112 103.851 5.592C104.17 6.06133 104.33 6.61067 104.33 7.24V13H102.09V11.592L102.635 11.496C102.379 11.88 102.096 12.2 101.786 12.456C101.477 12.7013 101.13 12.8827 100.747 13C100.362 13.128 99.9358 13.192 99.4665 13.192ZM109.502 13.096C108.446 13.096 107.625 12.8133 107.038 12.248C106.462 11.672 106.174 10.872 106.174 9.848V6.344H104.702V4.264H104.782C105.23 4.264 105.572 4.152 105.806 3.928C106.052 3.704 106.174 3.368 106.174 2.92V2.28H108.574V4.264H110.622V6.344H108.574V9.688C108.574 9.98667 108.628 10.2373 108.734 10.44C108.841 10.632 109.006 10.776 109.23 10.872C109.454 10.968 109.732 11.016 110.062 11.016C110.137 11.016 110.222 11.0107 110.318 11C110.414 10.9893 110.516 10.9787 110.622 10.968V13C110.462 13.0213 110.281 13.0427 110.078 13.064C109.876 13.0853 109.684 13.096 109.502 13.096ZM1.056 33V21.08H6.096C6.91733 21.08 7.62133 21.2187 8.208 21.496C8.79467 21.7733 9.24267 22.1733 9.552 22.696C9.86133 23.208 10.016 23.832 10.016 24.568C10.016 25.0907 9.872 25.592 9.584 26.072C9.296 26.5413 8.82133 26.936 8.16 27.256V26.04C8.78933 26.2853 9.27467 26.5787 9.616 26.92C9.95733 27.2613 10.192 27.6347 10.32 28.04C10.448 28.4347 10.512 28.8507 10.512 29.288C10.512 30.4613 10.1227 31.3733 9.344 32.024C8.56533 32.6747 7.48267 33 6.096 33H1.056ZM3.536 30.84H6.384C6.88533 30.84 7.28533 30.696 7.584 30.408C7.88267 30.12 8.032 29.7467 8.032 29.288C8.032 28.8187 7.88267 28.44 7.584 28.152C7.28533 27.864 6.88533 27.72 6.384 27.72H3.536V30.84ZM3.536 25.56H6.272C6.656 25.56 6.96 25.4533 7.184 25.24C7.41867 25.016 7.536 24.7227 7.536 24.36C7.536 23.9973 7.41867 23.7093 7.184 23.496C6.96 23.272 6.656 23.16 6.272 23.16H3.536V25.56ZM14.4229 33.192C13.7189 33.192 13.1162 33.0427 12.6149 32.744C12.1242 32.4347 11.7509 32.008 11.4949 31.464C11.2389 30.92 11.1109 30.2853 11.1109 29.56V24.264H13.5109V29.368C13.5109 29.6987 13.5749 29.992 13.7029 30.248C13.8415 30.4933 14.0335 30.6853 14.2789 30.824C14.5242 30.9627 14.8015 31.032 15.1109 31.032C15.4309 31.032 15.7082 30.9627 15.9429 30.824C16.1882 30.6853 16.3749 30.4933 16.5029 30.248C16.6415 29.992 16.7109 29.6987 16.7109 29.368V24.264H19.1109V33H16.8709V31.272L16.9989 31.656C16.7962 32.1787 16.4655 32.568 16.0069 32.824C15.5589 33.0693 15.0309 33.192 14.4229 33.192ZM24.337 33.192C23.4837 33.192 22.721 32.9893 22.049 32.584C21.377 32.1787 20.8437 31.6293 20.449 30.936C20.065 30.2427 19.873 29.4747 19.873 28.632C19.873 27.7787 20.0703 27.0107 20.465 26.328C20.8597 25.6347 21.393 25.0853 22.065 24.68C22.737 24.2747 23.489 24.072 24.321 24.072C24.961 24.072 25.5263 24.1947 26.017 24.44C26.5183 24.6747 26.913 25.0107 27.201 25.448L26.833 25.928V20.888H29.233V33H26.993V31.4L27.217 31.896C26.9183 32.3227 26.513 32.648 26.001 32.872C25.489 33.0853 24.9343 33.192 24.337 33.192ZM24.625 31.032C25.0623 31.032 25.4463 30.9307 25.777 30.728C26.1077 30.5253 26.3637 30.2427 26.545 29.88C26.737 29.5173 26.833 29.1013 26.833 28.632C26.833 28.1627 26.737 27.7467 26.545 27.384C26.3637 27.0213 26.1077 26.7387 25.777 26.536C25.4463 26.3333 25.0623 26.232 24.625 26.232C24.1877 26.232 23.793 26.3387 23.441 26.552C23.0997 26.7547 22.833 27.0373 22.641 27.4C22.449 27.752 22.353 28.1627 22.353 28.632C22.353 29.1013 22.449 29.5173 22.641 29.88C22.833 30.2427 23.0997 30.5253 23.441 30.728C23.793 30.9307 24.1877 31.032 24.625 31.032ZM30.3506 33V24.264H32.7506V33H30.3506ZM30.3506 23.48V21.08H32.7506V23.48H30.3506ZM35.2269 36.552C34.9709 36.552 34.7202 36.5307 34.4749 36.488C34.2402 36.4453 34.0322 36.376 33.8509 36.28V34.312C34.0002 34.3547 34.1762 34.392 34.3789 34.424C34.5815 34.456 34.7682 34.472 34.9389 34.472C35.4082 34.472 35.7442 34.36 35.9469 34.136C36.1495 33.912 36.3149 33.656 36.4429 33.368L37.0349 32.008L37.0029 34.008L33.1629 24.264H35.7389L38.2829 31.192H37.3229L39.8669 24.264H42.4429L38.6989 33.816C38.4642 34.424 38.1762 34.9307 37.8349 35.336C37.4935 35.7413 37.1042 36.0453 36.6669 36.248C36.2402 36.4507 35.7602 36.552 35.2269 36.552ZM47.0316 33.192C46.1676 33.192 45.3783 32.9947 44.6636 32.6C43.9596 32.2053 43.3943 31.6667 42.9676 30.984C42.5516 30.2907 42.3436 29.5067 42.3436 28.632C42.3436 27.7467 42.5516 26.9627 42.9676 26.28C43.3943 25.5973 43.9596 25.0587 44.6636 24.664C45.3783 24.2693 46.1676 24.072 47.0316 24.072C47.8956 24.072 48.6796 24.2693 49.3836 24.664C50.0876 25.0587 50.6476 25.5973 51.0636 26.28C51.4903 26.9627 51.7036 27.7467 51.7036 28.632C51.7036 29.5067 51.4903 30.2907 51.0636 30.984C50.6476 31.6667 50.0876 32.2053 49.3836 32.6C48.6796 32.9947 47.8956 33.192 47.0316 33.192ZM47.0316 31.032C47.469 31.032 47.8476 30.9307 48.1676 30.728C48.4983 30.5253 48.7543 30.2427 48.9356 29.88C49.1276 29.5173 49.2236 29.1013 49.2236 28.632C49.2236 28.1627 49.1276 27.752 48.9356 27.4C48.7543 27.0373 48.4983 26.7547 48.1676 26.552C47.8476 26.3387 47.469 26.232 47.0316 26.232C46.5943 26.232 46.2103 26.3387 45.8796 26.552C45.549 26.7547 45.2876 27.0373 45.0956 27.4C44.9143 27.752 44.8236 28.1627 44.8236 28.632C44.8236 29.1013 44.9143 29.5173 45.0956 29.88C45.2876 30.2427 45.549 30.5253 45.8796 30.728C46.2103 30.9307 46.5943 31.032 47.0316 31.032ZM52.4775 33V24.264H54.7175V25.992L54.5895 25.608C54.7922 25.0853 55.1175 24.7013 55.5655 24.456C56.0242 24.2 56.5575 24.072 57.1655 24.072C57.8268 24.072 58.4028 24.2107 58.8935 24.488C59.3948 24.7653 59.7842 25.1547 60.0615 25.656C60.3388 26.1467 60.4775 26.7227 60.4775 27.384V33H58.0775V27.896C58.0775 27.5547 58.0082 27.2613 57.8695 27.016C57.7415 26.7707 57.5548 26.5787 57.3095 26.44C57.0748 26.3013 56.7975 26.232 56.4775 26.232C56.1682 26.232 55.8908 26.3013 55.6455 26.44C55.4002 26.5787 55.2082 26.7707 55.0695 27.016C54.9415 27.2613 54.8775 27.5547 54.8775 27.896V33H52.4775ZM65.7516 33.192C64.8876 33.192 64.0983 32.9947 63.3836 32.6C62.6796 32.2053 62.1143 31.6667 61.6876 30.984C61.2716 30.2907 61.0636 29.5067 61.0636 28.632C61.0636 27.7467 61.2716 26.9627 61.6876 26.28C62.1143 25.5973 62.6796 25.0587 63.3836 24.664C64.0983 24.2693 64.8876 24.072 65.7516 24.072C66.6156 24.072 67.3996 24.2693 68.1036 24.664C68.8076 25.0587 69.3676 25.5973 69.7836 26.28C70.2103 26.9627 70.4236 27.7467 70.4236 28.632C70.4236 29.5067 70.2103 30.2907 69.7836 30.984C69.3676 31.6667 68.8076 32.2053 68.1036 32.6C67.3996 32.9947 66.6156 33.192 65.7516 33.192ZM65.7516 31.032C66.189 31.032 66.5676 30.9307 66.8876 30.728C67.2183 30.5253 67.4743 30.2427 67.6556 29.88C67.8476 29.5173 67.9436 29.1013 67.9436 28.632C67.9436 28.1627 67.8476 27.752 67.6556 27.4C67.4743 27.0373 67.2183 26.7547 66.8876 26.552C66.5676 26.3387 66.189 26.232 65.7516 26.232C65.3143 26.232 64.9303 26.3387 64.5996 26.552C64.269 26.7547 64.0076 27.0373 63.8156 27.4C63.6343 27.752 63.5436 28.1627 63.5436 28.632C63.5436 29.1013 63.6343 29.5173 63.8156 29.88C64.0076 30.2427 64.269 30.5253 64.5996 30.728C64.9303 30.9307 65.3143 31.032 65.7516 31.032Z" fill="#121212"/>
</svg>
