<svg width="17" height="17" viewBox="0 0 17 17" fill="none" xmlns="http://www.w3.org/2000/svg">
<mask id="mask0_86_23" style="mask-type:alpha" maskUnits="userSpaceOnUse" x="0" y="0" width="17" height="17">
<rect x="0.789185" y="0.46521" width="16" height="16" fill="#D9D9D9"/>
</mask>
<g mask="url(#mask0_86_23)">
<path d="M7.88923 10.9653L11.1392 8.88192C11.2948 8.78192 11.3726 8.64303 11.3726 8.46525C11.3726 8.28747 11.2948 8.14858 11.1392 8.04858L7.88923 5.96525C7.72256 5.85414 7.55311 5.84581 7.38089 5.94025C7.20867 6.03469 7.12256 6.18192 7.12256 6.38192V10.5486C7.12256 10.7486 7.20867 10.8958 7.38089 10.9903C7.55311 11.0847 7.72256 11.0764 7.88923 10.9653ZM8.78922 15.1319C7.867 15.1319 7.00034 14.9569 6.18922 14.6069C5.37811 14.2569 4.67256 13.7819 4.07256 13.1819C3.47256 12.5819 2.99756 11.8764 2.64756 11.0653C2.29756 10.2541 2.12256 9.38747 2.12256 8.46525C2.12256 7.54303 2.29756 6.67636 2.64756 5.86525C2.99756 5.05414 3.47256 4.34858 4.07256 3.74858C4.67256 3.14858 5.37811 2.67358 6.18922 2.32358C7.00034 1.97358 7.867 1.79858 8.78922 1.79858C9.71145 1.79858 10.5781 1.97358 11.3892 2.32358C12.2003 2.67358 12.9059 3.14858 13.5059 3.74858C14.1059 4.34858 14.5809 5.05414 14.9309 5.86525C15.2809 6.67636 15.4559 7.54303 15.4559 8.46525C15.4559 9.38747 15.2809 10.2541 14.9309 11.0653C14.5809 11.8764 14.1059 12.5819 13.5059 13.1819C12.9059 13.7819 12.2003 14.2569 11.3892 14.6069C10.5781 14.9569 9.71145 15.1319 8.78922 15.1319ZM8.78922 13.7986C10.2781 13.7986 11.5392 13.2819 12.5726 12.2486C13.6059 11.2153 14.1226 9.95414 14.1226 8.46525C14.1226 6.97636 13.6059 5.71525 12.5726 4.68192C11.5392 3.64858 10.2781 3.13192 8.78922 3.13192C7.30034 3.13192 6.03923 3.64858 5.00589 4.68192C3.97256 5.71525 3.45589 6.97636 3.45589 8.46525C3.45589 9.95414 3.97256 11.2153 5.00589 12.2486C6.03923 13.2819 7.30034 13.7986 8.78922 13.7986Z" fill="#121212"/>
</g>
</svg>
