<svg width="17" height="16" viewBox="0 0 17 16" fill="none" xmlns="http://www.w3.org/2000/svg">
<mask id="mask0_33_89" style="mask-type:alpha" maskUnits="userSpaceOnUse" x="0" y="0" width="17" height="16">
<rect x="0.5" width="16" height="16" fill="#D9D9D9"/>
</mask>
<g mask="url(#mask0_33_89)">
<path d="M7.16658 10.6667C7.35547 10.6667 7.51381 10.6028 7.64159 10.475C7.76936 10.3473 7.83325 10.1889 7.83325 10V6.00004C7.83325 5.81115 7.76936 5.65282 7.64159 5.52504C7.51381 5.39726 7.35547 5.33337 7.16658 5.33337C6.9777 5.33337 6.81936 5.39726 6.69159 5.52504C6.56381 5.65282 6.49992 5.81115 6.49992 6.00004V10C6.49992 10.1889 6.56381 10.3473 6.69159 10.475C6.81936 10.6028 6.9777 10.6667 7.16658 10.6667ZM9.83325 10.6667C10.0221 10.6667 10.1805 10.6028 10.3083 10.475C10.436 10.3473 10.4999 10.1889 10.4999 10V6.00004C10.4999 5.81115 10.436 5.65282 10.3083 5.52504C10.1805 5.39726 10.0221 5.33337 9.83325 5.33337C9.64436 5.33337 9.48603 5.39726 9.35825 5.52504C9.23047 5.65282 9.16658 5.81115 9.16658 6.00004V10C9.16658 10.1889 9.23047 10.3473 9.35825 10.475C9.48603 10.6028 9.64436 10.6667 9.83325 10.6667ZM8.49992 14.6667C7.5777 14.6667 6.71103 14.4917 5.89992 14.1417C5.08881 13.7917 4.38325 13.3167 3.78325 12.7167C3.18325 12.1167 2.70825 11.4112 2.35825 10.6C2.00825 9.78893 1.83325 8.92226 1.83325 8.00004C1.83325 7.07782 2.00825 6.21115 2.35825 5.40004C2.70825 4.58893 3.18325 3.88337 3.78325 3.28337C4.38325 2.68337 5.08881 2.20837 5.89992 1.85837C6.71103 1.50837 7.5777 1.33337 8.49992 1.33337C9.42214 1.33337 10.2888 1.50837 11.0999 1.85837C11.911 2.20837 12.6166 2.68337 13.2166 3.28337C13.8166 3.88337 14.2916 4.58893 14.6416 5.40004C14.9916 6.21115 15.1666 7.07782 15.1666 8.00004C15.1666 8.92226 14.9916 9.78893 14.6416 10.6C14.2916 11.4112 13.8166 12.1167 13.2166 12.7167C12.6166 13.3167 11.911 13.7917 11.0999 14.1417C10.2888 14.4917 9.42214 14.6667 8.49992 14.6667ZM8.49992 13.3334C9.98881 13.3334 11.2499 12.8167 12.2833 11.7834C13.3166 10.75 13.8333 9.48893 13.8333 8.00004C13.8333 6.51115 13.3166 5.25004 12.2833 4.21671C11.2499 3.18337 9.98881 2.66671 8.49992 2.66671C7.01103 2.66671 5.74992 3.18337 4.71659 4.21671C3.68325 5.25004 3.16659 6.51115 3.16659 8.00004C3.16659 9.48893 3.68325 10.75 4.71659 11.7834C5.74992 12.8167 7.01103 13.3334 8.49992 13.3334Z" fill="#7A7A7A"/>
</g>
</svg>
