<svg width="17" height="17" viewBox="0 0 17 17" fill="none" xmlns="http://www.w3.org/2000/svg">
<mask id="mask0_86_22" style="mask-type:alpha" maskUnits="userSpaceOnUse" x="0" y="0" width="17" height="17">
<rect x="0.984375" y="0.46521" width="16" height="16" fill="#D9D9D9"/>
</mask>
<g mask="url(#mask0_86_22)">
<path d="M8.08442 10.9653L11.3344 8.88192C11.49 8.78192 11.5677 8.64303 11.5677 8.46525C11.5677 8.28747 11.49 8.14858 11.3344 8.04858L8.08442 5.96525C7.91775 5.85414 7.7483 5.84581 7.57608 5.94025C7.40386 6.03469 7.31775 6.18192 7.31775 6.38192V10.5486C7.31775 10.7486 7.40386 10.8958 7.57608 10.9903C7.7483 11.0847 7.91775 11.0764 8.08442 10.9653ZM8.98442 15.1319C8.06219 15.1319 7.19553 14.9569 6.38442 14.6069C5.5733 14.2569 4.86775 13.7819 4.26775 13.1819C3.66775 12.5819 3.19275 11.8764 2.84275 11.0653C2.49275 10.2541 2.31775 9.38747 2.31775 8.46525C2.31775 7.54303 2.49275 6.67636 2.84275 5.86525C3.19275 5.05414 3.66775 4.34858 4.26775 3.74858C4.86775 3.14858 5.5733 2.67358 6.38442 2.32358C7.19553 1.97358 8.06219 1.79858 8.98442 1.79858C9.90664 1.79858 10.7733 1.97358 11.5844 2.32358C12.3955 2.67358 13.1011 3.14858 13.7011 3.74858C14.3011 4.34858 14.7761 5.05414 15.1261 5.86525C15.4761 6.67636 15.6511 7.54303 15.6511 8.46525C15.6511 9.38747 15.4761 10.2541 15.1261 11.0653C14.7761 11.8764 14.3011 12.5819 13.7011 13.1819C13.1011 13.7819 12.3955 14.2569 11.5844 14.6069C10.7733 14.9569 9.90664 15.1319 8.98442 15.1319ZM8.98442 13.7986C10.4733 13.7986 11.7344 13.2819 12.7677 12.2486C13.8011 11.2153 14.3177 9.95414 14.3177 8.46525C14.3177 6.97636 13.8011 5.71525 12.7677 4.68192C11.7344 3.64858 10.4733 3.13192 8.98442 3.13192C7.49553 3.13192 6.23442 3.64858 5.20108 4.68192C4.16775 5.71525 3.65108 6.97636 3.65108 8.46525C3.65108 9.95414 4.16775 11.2153 5.20108 12.2486C6.23442 13.2819 7.49553 13.7986 8.98442 13.7986Z" fill="#7A7A7A"/>
</g>
</svg>
