<svg width="16" height="16" viewBox="0 0 16 16" fill="none" xmlns="http://www.w3.org/2000/svg">
<path d="M11.9333 7.26665C9.79992 5.99998 6.23325 5.86665 4.19992 6.49998C3.86659 6.59998 3.53325 6.39998 3.43325 6.09998C3.33325 5.76665 3.53325 5.43331 3.83325 5.33331C6.19992 4.63331 10.0999 4.76665 12.5666 6.23331C12.8666 6.39998 12.9666 6.79998 12.7999 7.09998C12.6333 7.33331 12.2333 7.43331 11.9333 7.26665ZM11.8666 9.13331C11.6999 9.36665 11.3999 9.46665 11.1666 9.29998C9.36659 8.19998 6.63325 7.86665 4.53325 8.53331C4.26659 8.59998 3.96659 8.46665 3.89992 8.19998C3.83325 7.93331 3.96659 7.63331 4.23325 7.56665C6.66659 6.83331 9.66659 7.19998 11.7333 8.46665C11.9333 8.56665 12.0333 8.89998 11.8666 9.13331ZM11.0666 10.9666C10.9333 11.1666 10.6999 11.2333 10.4999 11.1C8.93325 10.1333 6.96659 9.93331 4.63325 10.4666C4.39992 10.5333 4.19992 10.3666 4.13325 10.1666C4.06659 9.93331 4.23325 9.73331 4.43325 9.66665C6.96659 9.09998 9.16659 9.33331 10.8999 10.4C11.1333 10.5 11.1666 10.7666 11.0666 10.9666ZM7.99992 1.33331C7.12444 1.33331 6.25753 1.50575 5.4487 1.84078C4.63986 2.17581 3.90493 2.66688 3.28587 3.28593C2.03563 4.53618 1.33325 6.23187 1.33325 7.99998C1.33325 9.76809 2.03563 11.4638 3.28587 12.714C3.90493 13.3331 4.63986 13.8241 5.4487 14.1592C6.25753 14.4942 7.12444 14.6666 7.99992 14.6666C9.76803 14.6666 11.4637 13.9643 12.714 12.714C13.9642 11.4638 14.6666 9.76809 14.6666 7.99998C14.6666 7.1245 14.4941 6.25759 14.1591 5.44876C13.8241 4.63992 13.333 3.90499 12.714 3.28593C12.0949 2.66688 11.36 2.17581 10.5511 1.84078C9.7423 1.50575 8.8754 1.33331 7.99992 1.33331Z" fill="#121212"/>
</svg>
