<svg width="16" height="16" viewBox="0 0 16 16" fill="none" xmlns="http://www.w3.org/2000/svg">
<mask id="mask0_33_199" style="mask-type:alpha" maskUnits="userSpaceOnUse" x="0" y="0" width="16" height="16">
<rect width="16" height="16" fill="#D9D9D9"/>
</mask>
<g mask="url(#mask0_33_199)">
<path d="M6.66683 10.6666C6.85572 10.6666 7.01405 10.6028 7.14183 10.475C7.26961 10.3472 7.3335 10.1889 7.3335 9.99998V5.99998C7.3335 5.81109 7.26961 5.65276 7.14183 5.52498C7.01405 5.3972 6.85572 5.33331 6.66683 5.33331C6.47794 5.33331 6.31961 5.3972 6.19183 5.52498C6.06405 5.65276 6.00016 5.81109 6.00016 5.99998V9.99998C6.00016 10.1889 6.06405 10.3472 6.19183 10.475C6.31961 10.6028 6.47794 10.6666 6.66683 10.6666ZM9.3335 10.6666C9.52238 10.6666 9.68072 10.6028 9.8085 10.475C9.93627 10.3472 10.0002 10.1889 10.0002 9.99998V5.99998C10.0002 5.81109 9.93627 5.65276 9.8085 5.52498C9.68072 5.3972 9.52238 5.33331 9.3335 5.33331C9.14461 5.33331 8.98627 5.3972 8.8585 5.52498C8.73072 5.65276 8.66683 5.81109 8.66683 5.99998V9.99998C8.66683 10.1889 8.73072 10.3472 8.8585 10.475C8.98627 10.6028 9.14461 10.6666 9.3335 10.6666ZM8.00016 14.6666C7.07794 14.6666 6.21127 14.4916 5.40016 14.1416C4.58905 13.7916 3.8835 13.3166 3.2835 12.7166C2.6835 12.1166 2.2085 11.4111 1.8585 10.6C1.5085 9.78887 1.3335 8.9222 1.3335 7.99998C1.3335 7.07776 1.5085 6.21109 1.8585 5.39998C2.2085 4.58887 2.6835 3.88331 3.2835 3.28331C3.8835 2.68331 4.58905 2.20831 5.40016 1.85831C6.21127 1.50831 7.07794 1.33331 8.00016 1.33331C8.92238 1.33331 9.78905 1.50831 10.6002 1.85831C11.4113 2.20831 12.1168 2.68331 12.7168 3.28331C13.3168 3.88331 13.7918 4.58887 14.1418 5.39998C14.4918 6.21109 14.6668 7.07776 14.6668 7.99998C14.6668 8.9222 14.4918 9.78887 14.1418 10.6C13.7918 11.4111 13.3168 12.1166 12.7168 12.7166C12.1168 13.3166 11.4113 13.7916 10.6002 14.1416C9.78905 14.4916 8.92238 14.6666 8.00016 14.6666ZM8.00016 13.3333C9.48905 13.3333 10.7502 12.8166 11.7835 11.7833C12.8168 10.75 13.3335 9.48887 13.3335 7.99998C13.3335 6.51109 12.8168 5.24998 11.7835 4.21665C10.7502 3.18331 9.48905 2.66665 8.00016 2.66665C6.51127 2.66665 5.25016 3.18331 4.21683 4.21665C3.1835 5.24998 2.66683 6.51109 2.66683 7.99998C2.66683 9.48887 3.1835 10.75 4.21683 11.7833C5.25016 12.8166 6.51127 13.3333 8.00016 13.3333Z" fill="#121212"/>
</g>
</svg>
