<svg width="17" height="16" viewBox="0 0 17 16" fill="none" xmlns="http://www.w3.org/2000/svg">
<path d="M12.4334 7.26671C10.3 6.00004 6.73337 5.86671 4.70004 6.50004C4.36671 6.60004 4.03337 6.40004 3.93337 6.10004C3.83337 5.76671 4.03337 5.43337 4.33337 5.33337C6.70004 4.63337 10.6 4.76671 13.0667 6.23337C13.3667 6.40004 13.4667 6.80004 13.3 7.10004C13.1334 7.33337 12.7334 7.43337 12.4334 7.26671ZM12.3667 9.13337C12.2 9.36671 11.9 9.46671 11.6667 9.30004C9.86671 8.20004 7.13337 7.86671 5.03337 8.53337C4.76671 8.60004 4.46671 8.46671 4.40004 8.20004C4.33337 7.93337 4.46671 7.63337 4.73337 7.56671C7.16671 6.83337 10.1667 7.20004 12.2334 8.46671C12.4334 8.56671 12.5334 8.90004 12.3667 9.13337ZM11.5667 10.9667C11.4334 11.1667 11.2 11.2334 11 11.1C9.43337 10.1334 7.46671 9.93337 5.13337 10.4667C4.90004 10.5334 4.70004 10.3667 4.63337 10.1667C4.56671 9.93337 4.73337 9.73337 4.93337 9.66671C7.46671 9.10004 9.66671 9.33337 11.4 10.4C11.6334 10.5 11.6667 10.7667 11.5667 10.9667ZM8.50004 1.33337C7.62456 1.33337 6.75766 1.50581 5.94882 1.84084C5.13998 2.17588 4.40505 2.66694 3.786 3.286C2.53575 4.53624 1.83337 6.23193 1.83337 8.00004C1.83337 9.76815 2.53575 11.4638 3.786 12.7141C4.40505 13.3331 5.13998 13.8242 5.94882 14.1592C6.75766 14.4943 7.62456 14.6667 8.50004 14.6667C10.2682 14.6667 11.9638 13.9643 13.2141 12.7141C14.4643 11.4638 15.1667 9.76815 15.1667 8.00004C15.1667 7.12456 14.9943 6.25766 14.6592 5.44882C14.3242 4.63998 13.8331 3.90505 13.2141 3.286C12.595 2.66694 11.8601 2.17588 11.0513 1.84084C10.2424 1.50581 9.37552 1.33337 8.50004 1.33337Z" fill="#7A7A7A"/>
</svg>
